<svg width="50" height="50" viewBox="0 0 50 50" fill="none" xmlns="http://www.w3.org/2000/svg">
<path d="M50 25C50 23.6192 48.8807 22.5 47.5 22.5C46.1193 22.5 45 23.6192 45 25H50ZM25 5C26.3808 5 27.5 3.88071 27.5 2.5C27.5 1.11929 26.3808 0 25 0V5ZM43.75 45H6.25V50H43.75V45ZM5 43.75V6.25H0V43.75H5ZM45 25V43.75H50V25H45ZM6.25 5H25V0H6.25V5ZM6.25 45C5.55965 45 5 44.4404 5 43.75H0C0 47.2018 2.79821 50 6.25 50V45ZM43.75 50C47.2018 50 50 47.2018 50 43.75H45C45 44.4404 44.4404 45 43.75 45V50ZM5 6.25C5 5.55965 5.55964 5 6.25 5V0C2.79822 0 0 2.79821 0 6.25H5Z" fill="#737373"/>
<path d="M2.50049 38.7502L15.8669 26.4977C16.7991 25.6431 18.2229 25.6193 19.1831 26.4425L35.0005 40.0002" stroke="#737373" stroke-width="4" stroke-linecap="round" stroke-linejoin="round"/>
<path d="M30.0005 33.7503L35.9674 27.7834C36.847 26.9038 38.2397 26.8048 39.2351 27.5513L47.5005 33.7503" stroke="#737373" stroke-width="4" stroke-linecap="round" stroke-linejoin="round"/>
<path d="M32.4995 10.0002H47.4995" stroke="#737373" stroke-width="4" stroke-linecap="round" stroke-linejoin="round"/>
<path d="M40.0005 2.5V17.5" stroke="#737373" stroke-width="4" stroke-linecap="round" stroke-linejoin="round"/>
</svg>
