<svg width="25" height="25" viewBox="0 0 25 25" fill="none" xmlns="http://www.w3.org/2000/svg">
<path d="M11.4499 3.94911C11.691 3.40809 11.8116 3.13758 11.9796 3.05428C12.1254 2.98191 12.2966 2.98191 12.4425 3.05428C12.6104 3.13758 12.731 3.40809 12.9722 3.94911L14.893 8.25842C14.9643 8.41835 15 8.49832 15.0552 8.55956C15.1039 8.61375 15.1636 8.65709 15.2302 8.68676C15.3055 8.7203 15.3926 8.72949 15.5667 8.74786L20.2587 9.24308C20.8478 9.30525 21.1423 9.33633 21.2734 9.47028C21.3873 9.58662 21.4402 9.74954 21.4164 9.91062C21.3891 10.096 21.1691 10.2943 20.7291 10.6908L17.2242 13.8494C17.0942 13.9666 17.0291 14.0252 16.988 14.0966C16.9515 14.1598 16.9287 14.2299 16.9211 14.3024C16.9125 14.3844 16.9306 14.47 16.967 14.6414L17.9459 19.2567C18.0688 19.8361 18.1303 20.1258 18.0434 20.2919C17.9679 20.4363 17.8293 20.5369 17.6688 20.5641C17.484 20.5953 17.2275 20.4474 16.7143 20.1515L12.6274 17.7942C12.4757 17.7067 12.3999 17.663 12.3192 17.6458C12.2479 17.6307 12.1741 17.6307 12.1028 17.6458C12.0222 17.663 11.9463 17.7067 11.7947 17.7942L7.7077 20.1515C7.1946 20.4474 6.93805 20.5953 6.75324 20.5641C6.59271 20.5369 6.45413 20.4363 6.37867 20.2919C6.29181 20.1258 6.35325 19.8361 6.47616 19.2567L7.45508 14.6414C7.49141 14.47 7.50958 14.3844 7.50095 14.3024C7.49332 14.2299 7.47054 14.1598 7.43408 14.0966C7.39288 14.0252 7.32784 13.9666 7.19776 13.8494L3.69295 10.6908C3.25294 10.2943 3.03293 10.096 3.00558 9.91062C2.98183 9.74954 3.03475 9.58662 3.14865 9.47028C3.27978 9.33633 3.57431 9.30525 4.16337 9.24308L8.85534 8.74786C9.02948 8.72949 9.11655 8.7203 9.19184 8.68676C9.25845 8.65709 9.3181 8.61375 9.36691 8.55956C9.42207 8.49832 9.45771 8.41835 9.52901 8.25842L11.4499 3.94911Z" stroke="white" stroke-width="2" stroke-linecap="round" stroke-linejoin="round"/>
</svg>
