<svg width="24" height="26" viewBox="0 0 24 26" fill="none" xmlns="http://www.w3.org/2000/svg">
<path fill-rule="evenodd" clip-rule="evenodd" d="M2.5272 18.5739C2.47762 21.5687 4.65579 24.0412 7.39353 24.0976H15.975C18.7128 24.0412 20.8909 21.5687 20.8413 18.5739L20.2697 11.8653C20.1246 9.33609 18.5068 7.19707 16.2628 6.56759C15.7953 6.4188 15.3108 6.34268 14.8238 6.34149H8.54467C8.05774 6.34268 7.57334 6.4188 7.10574 6.56759C4.86321 7.19727 3.2462 9.33472 3.10017 11.8624L2.5272 18.5739Z" stroke="white" stroke-width="2" stroke-linecap="round" stroke-linejoin="round"/>
<path d="M16.421 8.87807V6.02403C16.3699 3.34677 14.25 1.21879 11.6841 1.26919C9.11822 1.21879 6.99834 3.34677 6.94727 6.02403V8.87665" stroke="white" stroke-width="2" stroke-linecap="round" stroke-linejoin="round"/>
</svg>
