<svg width="21" height="22" viewBox="0 0 21 22" fill="none" xmlns="http://www.w3.org/2000/svg">
<path d="M19.1312 9.35936L3.29682 0.499985C2.96485 0.309232 2.58223 0.225235 2.20089 0.259395C1.81954 0.293554 1.45794 0.444215 1.16516 0.69093C0.872375 0.937646 0.662588 1.26847 0.56427 1.6385C0.465952 2.00853 0.483862 2.39986 0.615571 2.75936L3.55932 11L0.615571 19.2406C0.484228 19.5995 0.466869 19.9902 0.565866 20.3594C0.664863 20.7285 0.875389 21.0581 1.1687 21.3031C1.50761 21.5874 1.93572 21.7434 2.37807 21.7437C2.70046 21.7449 3.01742 21.6608 3.29682 21.5L19.1312 12.6406C19.4218 12.4764 19.6635 12.238 19.8318 11.9498C20 11.6615 20.0886 11.3337 20.0886 11C20.0886 10.6662 20 10.3385 19.8318 10.0502C19.6635 9.76194 19.4218 9.52354 19.1312 9.35936ZM3.07182 19.0531L5.54682 12.125H10.7499C11.0483 12.125 11.3345 12.0065 11.5454 11.7955C11.7564 11.5845 11.8749 11.2984 11.8749 11C11.8749 10.7016 11.7564 10.4155 11.5454 10.2045C11.3345 9.99351 11.0483 9.87498 10.7499 9.87498H5.54682L3.07182 2.94686L17.4437 11L3.07182 19.0531Z" fill="black"/>
</svg>
