<svg width="27" height="27" viewBox="0 0 27 27" fill="none" xmlns="http://www.w3.org/2000/svg">
<g id="pajamas:information" clip-path="url(#clip0_108_437)">
<path id="Vector" fill-rule="evenodd" clip-rule="evenodd" d="M13.5 27C17.0804 27 20.5142 25.5777 23.0459 23.0459C25.5777 20.5142 27 17.0804 27 13.5C27 9.91958 25.5777 6.4858 23.0459 3.95406C20.5142 1.42232 17.0804 0 13.5 0C9.91958 0 6.4858 1.42232 3.95406 3.95406C1.42232 6.4858 0 9.91958 0 13.5C0 17.0804 1.42232 20.5142 3.95406 23.0459C6.4858 25.5777 9.91958 27 13.5 27ZM15.1875 8.4375C15.1875 8.88505 15.0097 9.31427 14.6932 9.63074C14.3768 9.94721 13.9476 10.125 13.5 10.125C13.0524 10.125 12.6232 9.94721 12.3068 9.63074C11.9903 9.31427 11.8125 8.88505 11.8125 8.4375C11.8125 7.98995 11.9903 7.56073 12.3068 7.24426C12.6232 6.92779 13.0524 6.75 13.5 6.75C13.9476 6.75 14.3768 6.92779 14.6932 7.24426C15.0097 7.56073 15.1875 7.98995 15.1875 8.4375ZM11.8125 11.8125C11.4768 11.8125 11.1549 11.9458 10.9176 12.1832C10.6802 12.4205 10.5469 12.7425 10.5469 13.0781C10.5469 13.4138 10.6802 13.7357 10.9176 13.9731C11.1549 14.2104 11.4768 14.3438 11.8125 14.3438H12.2344V17.7188H10.5469C10.2112 17.7188 9.88929 17.8521 9.65194 18.0894C9.41459 18.3268 9.28125 18.6487 9.28125 18.9844C9.28125 19.32 9.41459 19.642 9.65194 19.8793C9.88929 20.1167 10.2112 20.25 10.5469 20.25H16.4531C16.7888 20.25 17.1107 20.1167 17.3481 19.8793C17.5854 19.642 17.7188 19.32 17.7188 18.9844C17.7188 18.6487 17.5854 18.3268 17.3481 18.0894C17.1107 17.8521 16.7888 17.7188 16.4531 17.7188H14.7656V11.8125H11.8125Z" fill="black"/>
</g>
<defs>
<clipPath id="clip0_108_437">
<rect width="27" height="27" fill="white"/>
</clipPath>
</defs>
</svg>
