<svg width="20" height="20" viewBox="0 0 20 20" fill="none" xmlns="http://www.w3.org/2000/svg">
<path d="M10.7868 12.5373L6.73682 13.2631L7.41182 9.17724L15.1474 1.50279C15.2729 1.37681 15.4222 1.27683 15.5867 1.20859C15.7512 1.14036 15.9277 1.10522 16.1059 1.10522C16.2841 1.10522 16.4605 1.14036 16.625 1.20859C16.7896 1.27683 16.9389 1.37681 17.0644 1.50279L18.4954 2.92747C18.6219 3.05241 18.7223 3.20107 18.7909 3.36485C18.8594 3.52863 18.8947 3.70431 18.8947 3.88174C18.8947 4.05916 18.8594 4.23484 18.7909 4.39862C18.7223 4.5624 18.6219 4.71106 18.4954 4.836L10.7868 12.5373Z" stroke="white" stroke-width="2" stroke-linecap="round" stroke-linejoin="round"/>
<path d="M16.6841 13.4073V17.4439C16.6841 17.8007 16.5424 18.143 16.29 18.3953C16.0377 18.6477 15.6955 18.7894 15.3386 18.7894H2.55599C2.19913 18.7894 1.85689 18.6477 1.60455 18.3953C1.35221 18.143 1.21045 17.8007 1.21045 17.4439V4.66127C1.21045 4.30441 1.35221 3.96217 1.60455 3.70983C1.85689 3.4575 2.19913 3.31573 2.55599 3.31573H6.5926" stroke="white" stroke-width="2" stroke-linecap="round" stroke-linejoin="round"/>
</svg>
