<svg width="22" height="22" viewBox="0 0 22 22" fill="none" xmlns="http://www.w3.org/2000/svg">
<path d="M11 20.9999C16.523 20.9999 21 17.3064 21 12.7499C21 9.52894 18.7625 6.85044 15.5 5.49194L13.75 6.24994L14 8.99994L10.75 7.99994L7.5 8.99994V6.24994L6 5.49194C3.011 6.91844 1 9.69644 1 12.7499C1 17.3064 5.477 20.9999 11 20.9999Z" stroke="white" stroke-width="2" stroke-linecap="round" stroke-linejoin="round"/>
<path d="M10.75 1L12.6545 3.5585L17 3.955L13.8315 6.2415L14.75 9.5L10.75 8L6.75 9.5L7.6685 6.2415L4.5 3.955L8.8455 3.5585L10.75 1Z" stroke="white" stroke-width="2" stroke-linecap="round" stroke-linejoin="round"/>
</svg>