<svg width="22" height="24" viewBox="0 0 22 24" fill="none" xmlns="http://www.w3.org/2000/svg">
<path d="M19.7019 15.0585L19.7019 15.0585L20.7086 23.1121C20.7209 23.2103 20.6904 23.3091 20.6249 23.3833C20.5594 23.4575 20.4652 23.5 20.3662 23.5H0.845091C0.746173 23.5 0.651964 23.4575 0.586509 23.3834C0.520899 23.309 0.490428 23.2102 0.502684 23.1121L0.104546 23.0624L0.502685 23.1121L1.50931 15.0586C1.50931 15.0586 1.50931 15.0585 1.50931 15.0585C1.65812 13.8686 2.31719 12.8514 3.24109 12.3204L7.20303 10.043L7.75298 9.72691L7.31716 9.26601C6.5487 8.45331 6.07746 7.36028 6.07746 6.15847C6.07746 6.0751 6.08043 5.98978 6.08545 5.90176L6.11559 5.37329H5.58626H0.845091C0.654486 5.37329 0.5 5.21881 0.5 5.0282C0.5 4.83763 0.654536 4.68311 0.845091 4.68311H4.58651H4.9339L5.05509 4.35754C5.90881 2.06407 8.12678 0.5 10.6057 0.5C13.0845 0.5 15.3025 2.06407 16.1562 4.35754L16.2774 4.68311H16.6248H20.3662C20.5568 4.68311 20.7113 4.8376 20.7113 5.0282C20.7113 5.21878 20.5568 5.37329 20.3662 5.37329H15.6251H15.0957L15.1259 5.90176C15.1309 5.98978 15.1339 6.07502 15.1339 6.15847C15.1339 7.36028 14.6626 8.45331 13.8942 9.26601L13.4583 9.72691L14.0083 10.043L17.9702 12.3203C18.8943 12.8516 19.5533 13.8687 19.7019 15.0585ZM5.87329 15.1338H5.37329V15.6338V22.3098V22.8098H5.87329H15.3381H15.8381V22.3098V15.6338V15.1338H15.3381H5.87329ZM6.76764 13.9437V14.4437H7.26764H13.9438H14.4438V13.9437V11.3787V11.0894L14.193 10.9452L13.0117 10.2661L12.7842 10.1354L12.5473 10.2483C11.9587 10.529 11.3009 10.6866 10.6057 10.6866C9.9106 10.6866 9.25273 10.529 8.66417 10.2483L8.42731 10.1354L8.1998 10.2661L7.01847 10.9452L6.76764 11.0894V11.3787V13.9437ZM14.7112 4.57038H15.5755L15.1446 3.82111C14.2279 2.22724 12.5058 1.1901 10.6057 1.1901C8.70553 1.1901 6.98337 2.22724 6.06669 3.82111L5.63576 4.57038H6.50012H14.7112ZM14.4296 5.83036L14.3902 5.37321H13.9314H7.27992H6.82109L6.78176 5.83036C6.77238 5.93934 6.76764 6.04867 6.76764 6.15838C6.76764 8.27509 8.48895 9.99641 10.6057 9.99641C12.7224 9.99641 14.4437 8.27509 14.4437 6.15838C14.4437 6.04876 14.4389 5.93935 14.4296 5.83036ZM2.19413 15.1441L2.19412 15.1441L1.30628 22.2479L1.23604 22.8099H1.80242H4.18303H4.68303V22.3099V14.7888C4.68303 14.5982 4.8376 14.4437 5.02812 14.4437H5.57746H6.07746V13.9437V12.3501V11.486L5.32829 11.9167L3.58504 12.9187C3.58503 12.9187 3.58502 12.9187 3.58501 12.9187C2.81234 13.3628 2.31128 14.2072 2.19413 15.1441ZM16.5282 22.3099V22.8099L17.0282 22.8099L19.4089 22.8098L19.9753 22.8098L19.905 22.2478L19.017 15.1442C18.9 14.2073 18.3989 13.3628 17.6262 12.9187C17.6262 12.9187 17.6262 12.9187 17.6262 12.9187L15.8829 11.9167L15.1338 11.486V12.3501V13.9437V14.4437H15.6338H16.1831C16.3737 14.4437 16.5282 14.5982 16.5282 14.7888V22.3099Z" stroke="white"/>
</svg>
