<svg width="18" height="18" viewBox="0 0 18 18" fill="none" xmlns="http://www.w3.org/2000/svg">
<path d="M2 18C1.45 18 0.979 17.8043 0.587 17.413C0.195667 17.021 0 16.55 0 16V2C0 1.45 0.195667 0.979 0.587 0.587C0.979 0.195667 1.45 0 2 0H16C16.55 0 17.021 0.195667 17.413 0.587C17.8043 0.979 18 1.45 18 2V16C18 16.55 17.8043 17.021 17.413 17.413C17.021 17.8043 16.55 18 16 18H2ZM2 16H16V13H13C12.5 13.6333 11.9043 14.125 11.213 14.475C10.521 14.825 9.78333 15 9 15C8.21667 15 7.47933 14.825 6.788 14.475C6.096 14.125 5.5 13.6333 5 13H2V16ZM9 13C9.53333 13 10.025 12.8623 10.475 12.587C10.925 12.3123 11.2917 11.95 11.575 11.5C11.675 11.35 11.8 11.229 11.95 11.137C12.1 11.0457 12.2667 11 12.45 11H16V2H2V11H5.55C5.73333 11 5.9 11.0457 6.05 11.137C6.2 11.229 6.325 11.35 6.425 11.5C6.70833 11.95 7.075 12.3123 7.525 12.587C7.975 12.8623 8.46667 13 9 13ZM2 16H16H2Z" fill="black"/>
</svg>
