<svg width="38" height="34" viewBox="0 0 38 34" fill="none" xmlns="http://www.w3.org/2000/svg">
<path d="M36 26V26C36.6129 26.3064 37 26.9328 37 27.618V31.2929C37 31.7456 36.8201 32.1799 36.5 32.5V32.5C36.1799 32.8201 35.7456 33 35.2929 33H2.70711C2.25435 33 1.82014 32.8201 1.5 32.5V32.5C1.17986 32.1799 1 31.7456 1 31.2929V27.618C1 26.9328 1.38713 26.3064 2 26V26M36 26H35M36 26V26C36.6129 25.6936 37 25.0672 37 24.382V20.2071C37 19.7544 36.8201 19.3201 36.5 19V19C36.1799 18.6799 35.7456 18.5 35.2929 18.5H32M2 26V26C1.38713 25.6936 1 25.0672 1 24.382V20.2071C1 19.7544 1.17986 19.3201 1.5 19V19C1.82014 18.6799 2.25435 18.5 2.70711 18.5H7M2 26H28.5M4.5 22.5H6M32 29.5H33.5M33.5 22.5H32M7 18.5L6.43458 17.3692C6.14573 16.7915 5.92097 16.1839 5.76431 15.5573L5.68657 15.2463C5.56266 14.7506 5.5 14.2417 5.5 13.7308V13.7308C5.5 12.5982 5.80779 11.487 6.39047 10.5159L6.53846 10.2692C6.845 9.75834 7.21846 9.28154 7.63976 8.86024V8.86024C8.20469 8.29531 8.87347 7.81326 9.58806 7.45597V7.45597C10.1882 7.15589 10.8334 6.93332 11.4914 6.80173L11.5555 6.78891C12.5105 6.59789 13.4924 6.58206 14.4531 6.74218L14.6834 6.78057C15.5534 6.92556 16.3883 7.23296 17.1445 7.68671V7.68671C18.037 8.22222 18.7995 8.94923 19.3768 9.81526L19.5 10L20.5 11.5M7 18.5H32M20.5 11.5L20.2 11.9C19.4211 12.9386 19 14.2018 19 15.5V15.5M20.5 11.5L21 11L22 10L22.6031 9.39687C23.19 8.81001 23.6063 8.07468 23.8076 7.2695V7.2695C23.9349 6.76029 24.1488 6.27676 24.44 5.84003L25 5V5C25.6247 4.06288 26.6765 3.5 27.8028 3.5H27.9183C28.3036 3.5 28.6863 3.56211 29.0518 3.68394L29.3292 3.77639C29.7703 3.92344 30.1712 4.17119 30.5 4.5V4.5C30.8288 4.82881 31.0766 5.22967 31.2236 5.67082L31.2963 5.88893C31.4312 6.29366 31.5 6.7175 31.5 7.14412V7.93419C31.5 8.30894 31.4396 8.68125 31.3211 9.03678V9.03678C31.1114 9.66586 31.0854 10.3417 31.2463 10.985L31.3631 11.4525C31.4541 11.8164 31.5846 12.1693 31.7524 12.5048L31.8174 12.6348C32.2663 13.5326 32.5 14.5226 32.5 15.5263V15.6431C32.5 16.2122 32.4302 16.7792 32.2922 17.3313L32 18.5M13 8.5V8.5C12.4477 9.60457 11.1045 10.0523 9.99996 9.5V9.5M27 5.5V5.5C27.5522 6.32843 28.6715 6.55228 29.5 6V6M7.99996 5.5L8.47843 5.59569C9.71291 5.84259 10.6946 6.77867 11 8V8M30 1L29.6492 1.26308C28.6498 2.0126 28.197 3.28808 28.5 4.5V4.5M4.5 29.5H6" stroke="black" stroke-width="1.5" stroke-linecap="round"/>
</svg>
