<svg width="61" height="40" viewBox="0 0 61 40" fill="none" xmlns="http://www.w3.org/2000/svg">
<path fill-rule="evenodd" clip-rule="evenodd" d="M27.2701 27.2646H34.7681C34.7681 27.8107 34.8506 28.3429 35.005 28.8529C34.8411 28.9149 34.6919 29.0061 34.5661 29.1215C34.4403 29.237 34.3402 29.3742 34.2717 29.5255C34.2032 29.6768 34.1675 29.8391 34.1667 30.0031C34.166 30.1672 34.2001 30.3298 34.2672 30.4816L34.3257 30.6122C34.4763 30.9533 34.7669 31.225 35.1336 31.3676C35.5003 31.5101 35.9131 31.5118 36.2812 31.3724L36.4491 31.3085C36.968 31.8671 37.5903 32.3646 38.2966 32.7815C37.9052 33.4582 38.1737 34.3101 38.9025 34.6742C39.2529 34.8485 39.6636 34.8867 40.0444 34.7804C40.4252 34.674 40.7448 34.4319 40.9329 34.1072L41.0589 33.8932C42.0485 34.1327 43.0702 34.2389 44.0925 34.2087L44.1315 34.3963C44.2071 34.7582 44.4347 35.0775 44.7643 35.2839C45.0939 35.4903 45.4985 35.5669 45.8891 35.4969C46.2796 35.4268 46.6242 35.2159 46.8469 34.9105C47.0696 34.605 47.1523 34.2301 47.0767 33.8682L47.0482 33.7362C48.3543 33.3506 49.5507 32.6992 50.5498 31.8296L51.0147 37.0116C50.644 37.0697 50.3104 37.2546 50.08 37.5298C49.8495 37.805 49.739 38.1504 49.7703 38.4975C49.8016 38.8447 49.9725 39.1682 50.2491 39.4042C50.5256 39.6401 50.8877 39.7712 51.2636 39.7714H55.7624V14.7577C55.7695 12.8712 55.0995 11.036 53.8579 9.54093C54.7951 9.77439 55.4505 10.1149 55.9123 10.5276C56.7476 11.271 57.262 12.5231 57.262 14.7577L57.8423 22.2896C57.4899 22.7968 57.262 23.5917 57.262 24.4853C57.262 26.0208 57.9338 27.2646 58.7616 27.2646C59.5893 27.2646 60.2611 26.0208 60.2611 24.4853C60.2611 23.5917 60.0332 22.7968 59.6808 22.2896L60.2611 14.7577C60.2611 12.2091 59.6868 10.0329 57.9908 8.52231C56.3157 7.03121 53.8579 6.46979 50.8332 6.42255C50.7192 6.41977 47.5986 6.41977 47.5146 6.41977V6.42949C47.3758 6.4231 47.2368 6.41986 47.0977 6.41977H25.0207C22.1205 6.41977 19.9296 6.01955 18.0926 5.49148L17.8632 5.20521C18.8679 4.96897 19.8801 4.59098 20.6074 4.09349C22.5119 2.79555 23.6171 0.184395 21.1803 0.470663C20.471 0.554043 19.9596 0.570718 19.5412 0.584615C18.5245 0.616577 18.0716 0.631864 16.722 1.5532C16.2068 1.90203 15.7292 2.29621 15.2959 2.73024C13.198 1.285 10.4057 0.638812 5.52605 0.861156C5.32719 0.861156 5.13648 0.93436 4.99587 1.06467C4.85525 1.19497 4.77626 1.3717 4.77626 1.55598C4.77626 1.74026 4.85525 1.91699 4.99587 2.0473C5.13648 2.1776 5.32719 2.25081 5.52605 2.25081H8.13084C8.55973 2.50651 8.92563 2.74553 9.25104 2.97343L3.8765 9.19907H3.55859C3.09094 9.19898 2.62975 9.30022 2.21185 9.49472C1.79395 9.68922 1.43092 9.97158 1.15176 10.3193C0.872598 10.6669 0.685035 11.0703 0.604056 11.4971C0.523076 11.9239 0.550922 12.3624 0.68537 12.7774L1.13525 14.1671C1.3207 14.7396 1.70038 15.2414 2.21796 15.5982C2.73554 15.9549 3.36343 16.1475 4.00847 16.1473H9.05009C9.68385 16.1476 10.3012 16.334 10.8136 16.6796L14.0977 18.8919C14.1967 18.9586 14.2987 19.0197 14.4021 19.0726C16.752 24.6868 19.2308 29.0586 22.0051 31.2584L22.5224 37.0116C22.1518 37.0697 21.8182 37.2546 21.5878 37.5298C21.3573 37.805 21.2468 38.1504 21.2781 38.4975C21.3094 38.8447 21.4803 39.1682 21.7568 39.4042C22.0334 39.6401 22.3955 39.7712 22.7714 39.7714H27.2701V27.2646ZM41.9811 27.2646H37.7673C37.7673 29.1128 39.9177 31.4335 43.7656 31.4335C45.1917 31.4335 46.3854 31.1139 47.3227 30.6192C45.1783 29.8271 43.5167 28.6487 41.9826 27.2646H41.9811Z" fill="black"/>
</svg>
