<svg width="48" height="47" viewBox="0 0 48 47" fill="none" xmlns="http://www.w3.org/2000/svg">
<path d="M46.7521 6.55109L40.6242 0.423168C40.06 -0.141056 39.1455 -0.141056 38.5813 0.423168L36.5383 2.46611C35.9741 3.03033 35.9741 3.94483 36.5383 4.50905L29.6169 11.4305C25.4118 9.65206 20.3726 10.4618 16.9449 13.8887L2.64698 28.1866C0.390989 30.4426 0.390989 34.1015 2.64698 36.3575L10.8178 44.5283C13.0738 46.7843 16.7327 46.7843 18.9887 44.5283L33.2875 30.2295C36.7144 26.8027 37.5241 21.7626 35.7457 17.5575L42.6671 10.6361C43.2314 11.2003 44.1459 11.2003 44.7101 10.6361L46.753 8.59313C47.3163 8.02981 47.3163 7.11531 46.7521 6.55109ZM17.1335 38.2126L8.96268 30.0418L19.9799 19.0245L28.1508 27.1954L17.1335 38.2126Z" fill="black"/>
</svg>
