<svg width="40" height="42" viewBox="0 0 40 42" fill="none" xmlns="http://www.w3.org/2000/svg">
<mask id="mask0_147_286" style="mask-type:luminance" maskUnits="userSpaceOnUse" x="0" y="0" width="40" height="42">
<path fill-rule="evenodd" clip-rule="evenodd" d="M20.0698 38.0503C22.4107 38.0503 23.3737 39.3117 24.6284 39.5919C25.8831 39.8731 26.9366 39.9501 28.0151 39.4754C30.1518 38.5337 31.4537 37.4128 33.0339 35.7382C35.9632 32.6337 37.4028 28.3669 37.4028 22.6519C37.4028 16.9368 35.8621 13.9825 33.4865 12.0508C31.1119 10.1192 29.7349 9.7494 26.8634 10.1192C23.9919 10.4889 22.4281 13.5742 20.0775 13.5742C17.728 13.5742 14.8632 10.5323 12.3721 10.1192C9.87998 9.7051 8.51453 10.1192 6.35754 12.0508C4.20055 13.9825 2.73688 16.9907 2.73688 22.6528C2.73688 28.313 4.23136 32.5095 7.15967 35.614C8.73889 37.2886 9.98783 38.5346 12.1236 39.4754C13.2021 39.9511 14.3182 39.8741 15.5286 39.5929C16.74 39.3136 17.7029 38.0522 20.0698 38.0522V38.0503Z" fill="white" stroke="white" stroke-width="4"/>
<path d="M20.0785 13.5742C20.8344 6.12682 24.0448 2.40216 29.7089 2.40216C30.2289 3.96983 30.3637 5.48646 30.1114 6.95302C29.9929 7.65019 29.6222 8.64395 29.0011 9.93429" stroke="white" stroke-width="4" stroke-linecap="round"/>
<path d="M10.6609 23.5869C10.3942 24.883 10.3942 26.2166 10.6609 27.5898C10.9267 28.962 11.4939 30.0212 12.3624 30.7675" stroke="black" stroke-width="4" stroke-linecap="round"/>
</mask>
<g mask="url(#mask0_147_286)">
<path d="M-3.04077 -1.44958H43.1804V44.7716H-3.04077V-1.44958Z" fill="black"/>
</g>
</svg>
