<svg width="40" height="40" viewBox="0 0 40 40" fill="none" xmlns="http://www.w3.org/2000/svg">
<path d="M38.2893 12.1696H32.4105C33.6822 14.373 34.1912 16.9345 33.8585 19.4566C33.5258 21.9788 32.3701 24.3207 30.5707 26.119C29.0324 27.688 27.0301 29.174 24.8201 30.5444C24.6818 30.6286 24.5192 30.6638 24.3584 30.6445C24.1977 30.6252 24.0481 30.5524 23.9336 30.4378L17.6432 24.1474C17.5064 24.0105 17.3434 23.9026 17.1641 23.8299C16.9847 23.7572 16.7926 23.7213 16.5991 23.7244C16.4055 23.7274 16.2146 23.7693 16.0376 23.8475C15.8606 23.9258 15.7011 24.0388 15.5687 24.1799C15.3138 24.4659 15.1792 24.8393 15.193 25.2221C15.2068 25.605 15.3679 25.9677 15.6427 26.2346L21.0376 31.6295C21.1182 31.7099 21.1786 31.8083 21.2139 31.9165C21.2493 32.0247 21.2585 32.1398 21.2409 32.2523C21.2233 32.3648 21.1793 32.4715 21.1126 32.5638C21.0459 32.656 20.9583 32.7312 20.857 32.7832C13.6873 36.5062 5.97055 38.9888 4.84751 39.339C4.31029 39.5893 3.70908 39.6683 3.12544 39.5653C2.5418 39.4622 2.00397 39.1822 1.58489 38.7631C1.16581 38.3441 0.885772 37.8062 0.782751 37.2226C0.67973 36.6389 0.758713 36.0377 1.00899 35.5005C1.50189 33.9279 6.24498 19.2021 12.7196 11.4239C12.7839 11.347 12.8636 11.2843 12.9535 11.2398C13.0434 11.1953 13.1416 11.1701 13.2418 11.1657C13.3421 11.1613 13.4421 11.1778 13.5356 11.2141C13.6291 11.2505 13.714 11.306 13.7848 11.377L21.377 18.971C21.5174 19.1113 21.6853 19.2212 21.8701 19.2938C22.0549 19.3664 22.2527 19.4001 22.4511 19.3928C22.6495 19.3855 22.8442 19.3374 23.0232 19.2515C23.2022 19.1655 23.3615 19.0436 23.4913 18.8934C23.7286 18.6069 23.8493 18.2416 23.8292 17.8701C23.8091 17.4987 23.6498 17.1484 23.3829 16.8892L15.9153 9.42163C15.8392 9.3458 15.7809 9.25394 15.7448 9.15273C15.7086 9.05153 15.6955 8.94354 15.7064 8.83663C15.7173 8.72972 15.752 8.62659 15.8078 8.53476C15.8636 8.44293 15.9392 8.36472 16.0291 8.30582C17.8205 7.12329 19.9059 6.46313 22.0515 6.39935C24.1971 6.33557 26.3181 6.87069 28.1766 7.94471V2.05873C28.1761 1.86056 28.2165 1.66441 28.2951 1.48249C28.3737 1.30058 28.4889 1.13678 28.6335 1.0013C28.7781 0.865815 28.9491 0.761543 29.1358 0.694968C29.3224 0.628393 29.5208 0.60094 29.7185 0.614318C30.0907 0.646699 30.4368 0.818946 30.6871 1.09635C30.9374 1.37376 31.0732 1.73571 31.0672 2.10929V7.23876L35.8229 2.48122C35.9571 2.34702 36.1165 2.24057 36.2918 2.16794C36.4671 2.09531 36.6551 2.05793 36.8449 2.05793C37.0347 2.05793 37.2226 2.09531 37.3979 2.16794C37.5733 2.24057 37.7326 2.34702 37.8668 2.48122C38.001 2.61542 38.1074 2.77474 38.1801 2.95008C38.2527 3.12542 38.2901 3.31335 38.2901 3.50314C38.2901 3.69293 38.2527 3.88086 38.1801 4.0562C38.1074 4.23155 38.001 4.39086 37.8668 4.52507L33.1093 9.2808H38.2387C38.6123 9.27482 38.9742 9.41065 39.2517 9.66092C39.5291 9.9112 39.7013 10.2573 39.7337 10.6295C39.7468 10.8271 39.7192 11.0253 39.6525 11.2117C39.5858 11.3981 39.4815 11.5689 39.346 11.7133C39.2106 11.8577 39.0469 11.9728 38.8651 12.0513C38.6833 12.1298 38.4873 12.1701 38.2893 12.1696Z" fill="black"/>
</svg>
