<svg width="35" height="40" viewBox="0 0 35 40" fill="none" xmlns="http://www.w3.org/2000/svg">
<path d="M4.21978 39.3526C1.67761 39.3526 0.656896 34.8076 0.445049 32.9972C0.216981 31.2396 0.428739 29.4529 1.06133 27.7973C1.33936 27.0095 1.81759 26.3076 2.44902 25.7606C3.08045 25.2136 3.84335 24.8403 4.66273 24.6774C6.91602 24.2922 8.5145 25.6404 10.5559 26.1026C10.9394 26.2256 11.3482 26.2472 11.7425 26.1652C12.1369 26.0832 12.5032 25.9004 12.8058 25.6347C13.1084 25.3689 13.337 25.0293 13.4692 24.6489C13.6015 24.2685 13.6328 23.8603 13.5603 23.4641C12.7129 20.1516 6.68491 20.0938 4.21978 20.0938C4.21978 16.5117 8.14858 16.0494 10.9604 16.3191C12.6284 16.4802 14.2709 16.8423 15.8521 17.3976C16.8151 17.725 17.9321 18.5531 18.9913 18.4761C20.5898 18.3413 20.9172 16.685 20.2239 15.4717C18.5484 12.6214 13.7914 12.3903 10.9604 12.3903C10.9604 8.5385 14.2922 7.80667 17.4891 8.38443C19.1399 8.70908 20.7486 9.21948 22.2846 9.90588C23.2668 10.3296 24.4416 11.1384 25.5201 10.7725C28.2933 9.92514 25.4045 6.95928 24.1719 6.2467C23.3069 5.76934 22.3891 5.39447 21.4372 5.12969C20.3972 4.82155 19.1261 4.9371 20.0698 3.72379C21.5454 2.42192 23.3762 1.59036 25.3275 1.3357C28.9674 0.488309 33.9939 0.334238 34.8799 4.91784C35.1751 7.33781 34.5944 9.78352 33.2429 11.8125C29.655 17.9496 25.2131 23.5457 20.0505 28.4329C17.3161 31.2359 14.3528 33.8063 11.1915 36.1172C9.2656 37.5038 6.72343 39.3526 4.21978 39.3526Z" fill="black"/>
</svg>
