<svg width="38" height="42" viewBox="0 0 38 42" fill="none" xmlns="http://www.w3.org/2000/svg">
<path d="M12.7033 23.2092C12.9106 22.8994 13.133 22.5998 13.3696 22.3118C12.8547 21.3408 12.5862 20.2582 12.5877 19.1591C11.3196 17.9011 10.6024 16.1913 10.5938 14.405C10.5851 12.6187 11.2856 10.902 12.5415 9.63176C12.5556 7.86238 13.2649 6.16949 14.5163 4.91848C15.7676 3.66748 17.4607 2.95869 19.2301 2.94509C19.858 2.29362 20.6111 1.77564 21.444 1.4222C22.277 1.06877 23.1727 0.887154 24.0776 0.88825C25.8937 0.88825 27.5422 1.6066 28.7536 2.77562C29.6419 2.77131 30.5223 2.94242 31.3443 3.27914C32.1664 3.61586 32.9138 4.11157 33.5438 4.73782C34.1738 5.36407 34.674 6.10854 35.0156 6.92853C35.3573 7.74852 35.5336 8.6279 35.5346 9.51621C36.8254 10.8021 37.5533 12.5475 37.5587 14.3694C37.5587 16.199 36.8288 17.8611 35.6444 19.0744V19.1841C35.6445 20.0785 35.4667 20.9639 35.1212 21.7888C34.7757 22.6137 34.2696 23.3617 33.6322 23.989C32.9948 24.6164 32.2389 25.1106 31.4086 25.4429C30.5783 25.7753 29.6902 25.9391 28.796 25.9247C27.5807 27.1149 25.9149 27.8506 24.0776 27.8506C22.2287 27.8506 20.5532 27.1053 19.3341 25.8997C18.2034 25.9015 17.0906 25.6179 16.0986 25.0754C15.1464 26.3765 14.6536 27.9572 14.6979 29.5689C14.7422 31.1807 15.321 32.7319 16.3432 33.9788L19.7905 38.1849C20.1144 38.58 20.268 39.0876 20.2176 39.5959C20.1672 40.1043 19.917 40.5718 19.5219 40.8956C19.1268 41.2194 18.6192 41.3731 18.1109 41.3227C17.6025 41.2723 17.135 41.022 16.8112 40.6269L13.3639 36.4208C12.5647 35.4477 11.9369 34.3458 11.5073 33.1622C10.4926 33.726 9.33978 33.993 8.18053 33.9328C7.02128 33.8725 5.90236 33.4873 4.95161 32.8213C3.08735 31.5137 1.49465 27.3114 0.175415 20.2126C6.22654 20.5535 10.1842 21.3777 12.0504 22.6835C12.2815 22.8472 12.5011 23.0224 12.7052 23.2112L12.7033 23.2092ZM20.9172 22.046L22.0458 23.163C22.585 23.6965 23.3034 23.9989 24.0776 23.9989C24.8479 23.9989 25.5605 23.7023 26.0997 23.1727L27.2476 22.0479L28.8557 22.073C30.5004 22.073 31.7926 20.7807 31.7926 19.1841L31.7676 17.5337L32.8865 16.3858C33.4123 15.8466 33.707 15.1359 33.707 14.3694C33.707 13.5798 33.3931 12.848 32.8403 12.3049L31.6732 11.1628L31.6829 9.53162C31.6829 7.91965 30.3906 6.62546 28.794 6.62546L27.209 6.63509L26.0824 5.54889C25.5454 5.02787 24.8258 4.73756 24.0776 4.74002C23.6895 4.73891 23.3053 4.81651 22.9482 4.96812C22.591 5.11972 22.2683 5.34219 21.9995 5.62207L20.8767 6.78338L19.259 6.79686C18.5008 6.8029 17.7754 7.10677 17.2393 7.64289C16.7032 8.17901 16.3993 8.90441 16.3933 9.66258L16.3817 11.2264L15.282 12.3396C14.7486 12.8788 14.4481 13.5952 14.4481 14.3694C14.4481 15.1533 14.7563 15.8774 15.3013 16.4205L16.4414 17.551V19.1572C16.4414 19.9233 16.7458 20.6581 17.2875 21.1999C17.8293 21.7417 18.5641 22.046 19.3303 22.046H20.9172ZM24.0776 18.2212C23.056 18.2212 22.0763 17.8154 21.3539 17.093C20.6316 16.3707 20.2258 15.391 20.2258 14.3694C20.2258 13.3479 20.6316 12.3682 21.3539 11.6458C22.0763 10.9235 23.056 10.5177 24.0776 10.5177C25.0991 10.5177 26.0788 10.9235 26.8012 11.6458C27.5235 12.3682 27.9293 13.3479 27.9293 14.3694C27.9293 15.391 27.5235 16.3707 26.8012 17.093C26.0788 17.8154 25.0991 18.2212 24.0776 18.2212ZM7.16252 29.6648C7.67031 29.9911 8.2847 30.1082 8.87691 29.9916C9.46913 29.8749 9.99321 29.5335 10.3393 29.039C10.6854 28.5445 10.8267 27.9352 10.7335 27.3389C10.6403 26.7425 10.32 26.2054 9.8395 25.84C9.15003 25.3566 7.53229 24.8944 5.08257 24.542C5.89144 27.5579 6.67335 29.3239 7.16252 29.6648Z" fill="black"/>
</svg>
