<svg width="41" height="42" viewBox="0 0 41 42" fill="none" xmlns="http://www.w3.org/2000/svg">
<path d="M4.58 32.2845L4.58578 32.2802C-1.09365 26.2483 -0.989654 16.7239 4.89777 10.835C7.49772 8.23505 10.9499 6.63175 14.6042 6.29954C16.4469 6.13841 18.1746 5.33589 19.4863 4.03181L19.7463 3.77182C23.4874 0.0307874 29.5279 -0.0674328 33.3903 3.47571L33.3975 3.46849L33.7008 3.77182L37.9474 8.01839C41.7895 11.8605 41.7895 18.1293 37.9474 21.9714L37.6874 22.2314C36.3874 23.5458 35.5785 25.2791 35.4197 27.1135C35.1019 30.7823 33.4986 34.2345 30.8986 36.8344C24.8899 42.8287 15.1257 42.8287 9.13135 36.8344L4.58 32.2845ZM4.62333 14.7638C1.5294 19.7254 2.05806 26.3047 6.2093 30.7116C7.74776 32.3482 9.68049 33.5626 11.8225 34.2386C13.9646 34.9146 16.2443 35.0295 18.4435 34.5725C19.9886 34.2508 21.4626 33.6518 22.794 32.8045C23.5018 32.3567 23.7762 31.4468 23.4151 30.6812L19.2986 22.0436C18.485 20.3583 17.1189 19.0024 15.4275 18.2015L6.74662 14.1283C5.98108 13.7816 5.0711 14.0416 4.62333 14.7638ZM24.0218 28.5146C24.1398 28.7652 24.3187 28.9822 24.5421 29.1458C24.7656 29.3095 25.0264 29.4145 25.3009 29.4514C25.5754 29.4884 25.8547 29.4559 26.1135 29.3571C26.3722 29.2583 26.6021 29.0963 26.7821 28.8858C28.002 27.0269 28.7415 24.8943 28.9342 22.6792C29.1365 20.3103 30.1764 18.0859 31.852 16.396L32.112 16.136C32.842 15.4075 33.4161 14.538 33.7993 13.5804C34.1825 12.6229 34.3667 11.5974 34.3407 10.5663C34.316 9.52483 34.077 8.49957 33.6387 7.55448C33.2003 6.6094 32.5719 5.76476 31.7927 5.07323C28.7768 2.39385 24.1359 2.58884 21.263 5.46178L21.0896 5.63511C19.4014 7.31332 17.1779 8.34589 14.8064 8.55282C12.6398 8.7406 10.5599 9.44836 8.73991 10.6039C7.64216 11.3117 7.74327 12.9583 8.92768 13.5072L16.0342 16.8726C16.0429 16.8726 16.0486 16.877 16.0573 16.8799C16.0645 16.8828 16.0718 16.8871 16.0775 16.8871C17.4786 17.5371 19.1252 17.2915 20.223 16.1938L21.2919 15.1249C21.9707 14.446 22.2307 13.4494 21.9563 12.5394C21.7204 11.7564 21.7005 10.9243 21.8989 10.1309C22.0972 9.33761 22.5063 8.61267 23.0829 8.03283C23.5181 7.59559 24.0386 7.25262 24.612 7.02528C25.1855 6.79795 25.7996 6.69111 26.4161 6.71144C27.0326 6.73176 27.6384 6.87881 28.1956 7.14342C28.7528 7.40803 29.2496 7.78454 29.655 8.2495C31.1428 9.92501 31.1428 12.4961 29.655 14.186C28.4273 15.5727 26.5784 16.0204 24.9607 15.5293C24.5093 15.3898 24.0283 15.3766 23.5699 15.4912C23.1115 15.6058 22.6933 15.8438 22.3607 16.1793L21.3063 17.2337C20.2085 18.3315 19.963 19.9926 20.6274 21.3937C20.6274 21.4009 20.6318 21.4052 20.6361 21.4081C20.639 21.4124 20.6433 21.4153 20.6433 21.4225L24.0232 28.5146H24.0218ZM24.4696 9.39058C23.5018 10.3583 23.5018 11.9183 24.4696 12.8861C25.4373 13.8538 27.0117 13.8538 27.9795 12.9005C28.9472 11.9327 28.9472 10.3583 27.9795 9.39058C27.5137 8.92575 26.8826 8.66469 26.2245 8.66469C25.5665 8.66469 24.9353 8.92575 24.4696 9.39058Z" fill="black"/>
</svg>
