<svg width="84" height="75" viewBox="0 0 84 75" fill="none" xmlns="http://www.w3.org/2000/svg">
<path d="M82.4477 9.91776C82.0422 9.46019 81.5415 9.09319 80.9792 8.8415C80.4169 8.5898 79.8061 8.45925 79.1881 8.45865H19.605L18.7643 3.53571C18.5969 2.54816 18.0778 1.65087 17.2993 1.00345C16.5209 0.356027 15.5335 0.000460866 14.5129 0H4.81168C3.66815 0 2.57146 0.445588 1.76286 1.23874C0.954264 2.03189 0.5 3.10764 0.5 4.22932C0.5 5.35101 0.954264 6.42675 1.76286 7.2199C2.57146 8.01306 3.66815 8.45865 4.81168 8.45865H10.861L18.8807 55.6748L19.0747 56.1992L19.3075 56.8379L19.8249 57.5949L20.2345 58.0686L21.0667 58.6184L21.5496 58.8933C22.051 59.0989 22.5885 59.2066 23.132 59.2105H70.5647C71.7083 59.2105 72.8049 58.7649 73.6135 57.9718C74.4221 57.1786 74.8764 56.1029 74.8764 54.9812C74.8764 53.8595 74.4221 52.7838 73.6135 51.9906C72.8049 51.1975 71.7083 50.7519 70.5647 50.7519H26.7883L26.0725 46.5226H74.8764C75.914 46.5227 76.9168 46.1558 77.7008 45.4893C78.4849 44.8227 78.9976 43.9012 79.145 42.8938L83.4566 13.2885C83.544 12.6886 83.4991 12.0773 83.325 11.4958C83.151 10.9143 82.8518 10.3762 82.4477 9.91776ZM74.2167 16.9173L72.9879 25.3759H57.6297V16.9173H74.2167ZM53.318 16.9173V25.3759H40.383V16.9173H53.318ZM53.318 29.6053V38.0639H40.383V29.6053H53.318ZM36.0713 16.9173V25.3759H23.1363L22.4982 25.5028L21.0408 16.9173H36.0713ZM23.1967 29.6053H36.0713V38.0639H24.6324L23.1967 29.6053ZM57.6297 38.0639V29.6053H72.367L71.1382 38.0639H57.6297Z" fill="#FFBB00"/>
<path d="M30.1429 74.9999C33.4172 74.9999 36.0715 72.349 36.0715 69.0789C36.0715 65.8088 33.4172 63.1578 30.1429 63.1578C26.8687 63.1578 24.2144 65.8088 24.2144 69.0789C24.2144 72.349 26.8687 74.9999 30.1429 74.9999Z" fill="#FFBB00"/>
<path d="M67.6903 74.9999C70.9645 74.9999 73.6189 72.349 73.6189 69.0789C73.6189 65.8088 70.9645 63.1578 67.6903 63.1578C64.416 63.1578 61.7617 65.8088 61.7617 69.0789C61.7617 72.349 64.416 74.9999 67.6903 74.9999Z" fill="#FFBB00"/>
</svg>
