<svg width="96" height="65" viewBox="0 0 96 65" fill="none" xmlns="http://www.w3.org/2000/svg">
<path fill-rule="evenodd" clip-rule="evenodd" d="M14.1097 0C12.7237 0 11.4682 0.817966 10.9081 2.08587L1.22516 24.0082C1.02839 24.4537 0.926758 24.9353 0.926758 25.4223V51.7292C0.926758 53.6622 2.49376 55.2292 4.42676 55.2292H11.3364C11.9149 57.4726 13.0907 59.5403 14.7646 61.2016C17.2179 63.6367 20.5399 65 23.9982 65C27.4565 65 30.7784 63.6367 33.2318 61.2016C34.9056 59.5403 36.0815 57.4726 36.66 55.2292H59.1935C59.7721 57.4726 60.9479 59.5403 62.6217 61.2016C65.0751 63.6367 68.397 65 71.8553 65C75.3137 65 78.6356 63.6367 81.0889 61.2016C82.7628 59.5403 83.9386 57.4726 84.5171 55.2292H91.5735C93.5065 55.2292 95.0735 53.6622 95.0735 51.7292V34.1913C95.0735 30.8191 93.5912 27.6644 91.0868 25.3964C88.594 23.1389 85.2811 21.9223 81.8905 21.9223H78.6273L60.3062 1.1828C59.6418 0.430727 58.6866 0 57.6831 0H48.0001H14.1097ZM84.3648 48.2292H88.0735V34.1913C88.0735 32.9122 87.5155 31.606 86.388 30.585C85.2491 29.5535 83.6362 28.9223 81.8905 28.9223H77.0491H48.0001H7.92676V48.2292H11.4887C12.1087 46.195 13.2263 44.3251 14.7646 42.7984C17.2179 40.3633 20.5399 39 23.9982 39C27.4565 39 30.7784 40.3633 33.2318 42.7984C34.77 44.3251 35.8877 46.195 36.5077 48.2292H59.3458C59.9658 46.195 61.0835 44.3251 62.6217 42.7984C65.0751 40.3633 68.397 39 71.8553 39C75.3137 39 78.6356 40.3633 81.0889 42.7984C82.6272 44.3251 83.7448 46.195 84.3648 48.2292ZM65.844 52.842C65.9611 52.4924 66.0246 52.1182 66.0246 51.7292C66.0246 51.4125 65.9825 51.1057 65.9037 50.8139C66.137 49.6708 66.7049 48.6083 67.5529 47.7666C68.6895 46.6385 70.2367 46 71.8553 46C73.474 46 75.0211 46.6385 76.1578 47.7666C77.2935 48.8939 77.9268 50.4172 77.9268 52C77.9268 53.5828 77.2935 55.1061 76.1578 56.2334C75.0211 57.3615 73.474 58 71.8553 58C70.2367 58 68.6895 57.3615 67.5529 56.2334C66.6204 55.3078 66.0266 54.1153 65.844 52.842ZM30.0154 51.2C29.8399 49.911 29.2434 48.7024 28.3006 47.7666C27.164 46.6385 25.6169 46 23.9982 46C22.3795 46 20.8324 46.6385 19.6958 47.7666C18.56 48.8939 17.9268 50.4172 17.9268 52C17.9268 53.5828 18.56 55.1061 19.6958 56.2334C20.8324 57.3615 22.3795 58 23.9982 58C25.6169 58 27.164 57.3615 28.3006 56.2334C29.3262 55.2155 29.942 53.8747 30.0518 52.4588C30.0019 52.2235 29.9757 51.9794 29.9757 51.7292C29.9757 51.5493 29.9892 51.3726 30.0154 51.2ZM44.5001 21.9223H9.7989L16.39 7H44.5001V21.9223ZM51.5001 21.9223V7H56.1049L69.2871 21.9223H51.5001Z" fill="#FFBB00"/>
</svg>
