<svg width="72" height="71" viewBox="0 0 72 71" fill="none" xmlns="http://www.w3.org/2000/svg">
<path d="M15 56.5H5.66667C4.42937 56.4988 3.2431 56.0067 2.3682 55.1318C1.4933 54.2569 1.00124 53.0706 1 51.8333V42.5H5.66667V51.8333H15V56.5ZM1 23.8333H5.66667V33.1667H1V23.8333ZM57 14.5H52.3333V5.16667H43V0.5H52.3333C53.5706 0.501235 54.7569 0.993297 55.6318 1.8682C56.5067 2.7431 56.9988 3.92937 57 5.16667V14.5ZM24.3333 0.5H33.6667V5.16667H24.3333V0.5ZM5.66667 14.5H1V5.16667C1.00124 3.92937 1.4933 2.7431 2.3682 1.8682C3.2431 0.993297 4.42937 0.501235 5.66667 0.5H15V5.16667H5.66667V14.5ZM59.3333 70.5C59.0269 70.5003 58.7234 70.4401 58.4403 70.3228C58.1572 70.2054 57.9001 70.0333 57.6837 69.8163L43.3617 55.4943L35.608 67.1283C35.3623 67.4968 35.0168 67.7878 34.6118 67.9672C34.2069 68.1466 33.7592 68.2071 33.3212 68.1415C32.8831 68.0759 32.4728 67.887 32.1382 67.5968C31.8035 67.3067 31.5584 66.9273 31.4313 66.503L17.4313 19.8363C17.3104 19.4328 17.3009 19.0041 17.404 18.5957C17.507 18.1873 17.7187 17.8144 18.0165 17.5165C18.3144 17.2187 18.6873 17.007 19.0957 16.904C19.5041 16.8009 19.9328 16.8104 20.3363 16.9313L67.003 30.9313C67.4273 31.0583 67.8067 31.3035 68.0969 31.6382C68.387 31.9728 68.5759 32.3831 68.6415 32.8212C68.7071 33.2592 68.6466 33.7068 68.4672 34.1118C68.2878 34.5168 67.9968 34.8623 67.6283 35.108L55.9943 42.8617L70.3163 57.1837C70.7538 57.6212 70.9995 58.2146 70.9995 58.8333C70.9995 59.452 70.7538 60.0454 70.3163 60.483L60.983 69.8163C60.7666 70.0333 60.5095 70.2054 60.2264 70.3228C59.9433 70.4401 59.6398 70.5003 59.3333 70.5ZM59.3333 64.8673L65.3673 58.8333L48.6723 42.1383L60.913 33.9763L23.148 22.648L34.4763 60.413L42.6383 48.1723L59.3333 64.8673Z" fill="#FFBB00" stroke="#FFBB00"/>
</svg>
