<svg width="70" height="75" viewBox="0 0 70 75" fill="none" xmlns="http://www.w3.org/2000/svg">
<path d="M29.9396 0.00142285C29.2766 -0.000924116 28.6116 -0.000253558 27.9447 0.00259633C24.7349 0.0175164 21.4738 0.10184 18.1848 0.223882L19.1364 4.39696C22.5614 4.00971 26.3164 3.72137 30.0711 3.5772C32.1052 3.49908 34.1269 3.45784 36.088 3.46823C41.9714 3.49891 47.3094 3.99295 50.8018 5.34614L52.2952 5.92517L51.6285 7.38113C46.7567 18.0238 45.63 28.2913 46.3934 38.3655C46.7702 26.4097 51.74 15.7759 58.264 2.1437C49.3864 0.668465 39.8849 0.0344475 29.9396 0.00125467V0.00142285ZM34.6393 6.5042C33.1741 6.50538 31.6804 6.53505 30.1869 6.59238C23.201 6.86061 16.2394 7.68037 11.7022 8.62016C16.7704 18.0213 20.8704 27.444 23.518 36.6299C23.8473 36.6189 24.1769 36.6214 24.5061 36.6374C25.1796 36.6705 25.8458 36.7618 26.4968 36.904C23.802 28.2878 20.7325 20.3411 16.9168 12.4065L16.0546 10.6137L18.0137 10.2671C22.9349 9.39567 28.0144 9.05838 32.8489 9.05687C33.1711 9.05687 33.4926 9.05804 33.8125 9.06089C36.8843 9.08772 39.8448 9.24664 42.5878 9.48586L44.4409 9.64763L43.9004 11.4275C40.7655 21.7479 40.1515 32.8315 41.9239 43.3768C41.9534 43.4041 41.9833 43.4312 42.0121 43.4589C42.6513 43.2349 43.2493 43.0066 43.8067 42.7625C42.423 31.4646 43.036 19.8087 48.2037 7.69194C45.32 6.95717 40.9239 6.5731 36.0935 6.51275C35.6088 6.50676 35.124 6.5038 34.6393 6.5042ZM58.9379 7.74223C53.7485 18.7321 50.0625 27.5389 49.4584 37.0463C52.8175 25.8476 59.3104 15.8088 66.7093 9.35913C64.141 8.71851 61.5486 8.17913 58.9379 7.74223ZM9.49048 10.8484C6.34554 11.4969 3.27336 12.32 0.301758 13.4573C1.74783 14.7112 4.36202 17.0439 7.53378 20.1443C8.99359 18.6417 10.4824 17.1573 12.0353 15.8074C11.2128 14.1413 10.3644 12.4881 9.49048 10.8484ZM33.2993 12.1027C31.016 12.0917 28.6788 12.157 26.3332 12.3195C26.0871 14.6132 24.7305 16.759 23.1103 18.8692C25.6971 24.9829 27.9313 31.2215 29.9426 37.8451C33.023 38.7537 36.0706 39.8278 38.5393 41.1148C37.6223 33.9971 37.7477 26.7039 38.9382 19.5716C36.7782 17.3403 35.653 14.8626 35.5628 12.1384C34.8084 12.1183 34.0539 12.1064 33.2993 12.1027ZM63.8129 16.6265C59.6672 21.5384 56.0141 27.6903 53.5248 34.3817C58.0954 27.8802 63.7157 22.8091 69.6983 19.227C67.7492 18.3316 65.7872 17.4647 63.8129 16.6265ZM13.3967 18.6313C10.9501 20.8422 8.53275 23.4958 6.01529 26.0238C11.4282 29.241 16.0387 33.0509 19.7997 37.3663C20.0332 37.2782 20.2691 37.1989 20.5063 37.1266C18.7464 31.0755 16.3346 24.8833 13.3967 18.6313ZM52.5218 39.5448C49.773 42.8621 47.1852 44.6135 43.6218 46.0107C44.0226 47.5564 43.4273 49.3309 42.057 50.6881C41.251 51.4862 40.2381 52.396 38.7572 52.9873C38.9708 53.1138 39.1889 53.2327 39.411 53.3438C41.4837 54.3782 45.1455 54.0446 48.5474 52.4974C51.9388 50.9551 54.9684 48.291 56.0912 45.5921C56.654 44.075 56.2522 43.2837 55.2669 42.1233C54.5655 41.2977 53.5411 40.4654 52.5218 39.545V39.5448ZM24.0097 39.6431C22.2134 39.6266 20.3891 40.145 18.8815 41.2793C16.7374 42.8925 15.0845 45.7693 15.0697 50.6561V50.6896L15.068 50.7231C14.5785 61.0131 15.3363 65.7605 16.8375 68.3363C18.1625 70.6098 20.3663 71.6982 23.5901 73.6998C23.7436 73.2964 23.9036 72.8004 24.0536 72.1746C24.4353 70.5822 24.7511 68.3951 24.9513 65.9761C25.3518 61.1383 25.2933 55.3292 24.6236 51.1491L24.2697 48.9379L26.4517 49.44C31.7516 50.6592 34.7834 50.8032 36.5437 50.4928C38.3042 50.182 38.9009 49.5669 39.9335 48.5441C40.9042 47.5832 40.8861 47.2374 40.6805 46.6966C40.4748 46.1556 39.6497 45.2641 38.2497 44.4111C35.4496 42.7052 30.6917 41.1235 26.2443 39.944C25.5149 39.7509 24.7642 39.6498 24.0097 39.6431ZM55.7105 51.28C54.0319 52.9152 51.9663 54.2575 49.7967 55.2442C46.2791 56.8438 42.4099 57.5756 39.1999 56.5104C38.0667 56.9322 37.4084 57.4168 37.0763 57.818C36.6206 58.3685 36.5921 58.7736 36.7465 59.3536C36.9007 59.9336 37.3609 60.6223 37.9299 61.1178C38.4987 61.6134 39.1748 61.8709 39.4318 61.883C47.2764 62.2555 50.6714 60.0042 54.9012 57.393C56.1347 56.6316 56.6067 55.0892 56.4885 53.5489C56.4294 52.7787 56.2052 52.055 55.9466 51.5992C55.8823 51.4829 55.8029 51.3756 55.7105 51.28ZM27.8508 52.8049C28.308 57.0073 28.3155 61.9101 27.9584 66.225C27.7494 68.7517 27.4262 71.0495 26.988 72.8778C26.7974 73.6735 26.5876 74.3789 26.3342 75L50.9266 73.9162C50.6489 72.8854 50.366 71.8502 50.0832 70.8145C49.1383 71.129 48.1726 71.3768 47.193 71.5562L47.2004 71.6785L45.8063 71.7654C44.9478 71.8683 44.0541 71.9251 43.1269 71.9317L29.0686 72.8051L29.4865 70.8593C30.8187 64.6556 30.9416 59.1933 30.1198 53.2178C29.3608 53.0949 28.6043 52.9572 27.8507 52.8049H27.8508ZM33.2106 53.5901C33.8725 58.9434 33.7928 64.0526 32.8073 69.5495L36.0367 69.349C35.5303 68.6017 35.1823 67.7586 35.0141 66.8716C34.7968 65.7182 34.9177 64.4344 35.6723 63.3729C35.7056 63.3258 35.7417 63.2807 35.7774 63.2353C34.8979 62.4231 34.1633 61.3809 33.8304 60.1299C33.476 58.7982 33.6973 57.1677 34.7519 55.8937C35.1004 55.4729 35.5217 55.093 36.0164 54.751C35.5789 54.4023 35.1953 54.0327 34.8641 53.6476C34.3504 53.6511 33.8004 53.632 33.2106 53.5901ZM55.4508 60.595C51.5187 62.9844 47.1007 65.2681 39.2886 64.8973C39.0336 64.8848 38.7802 64.8503 38.5312 64.7942C38.3245 64.8869 38.2142 65.0048 38.1319 65.1206C37.9704 65.3478 37.8751 65.7576 37.9795 66.313C38.1887 67.424 39.241 68.6414 40.2209 68.7554C47.1587 69.5622 51.9522 67.2926 54.8628 64.652C56.2039 63.4353 56.2153 62.6571 56.0178 61.8104C55.9189 61.3874 55.701 60.9774 55.4508 60.595ZM54.3305 68.8198C53.8648 69.1117 53.3867 69.3835 52.8977 69.6345C53.1743 70.6489 53.4516 71.6633 53.7253 72.6778L57.0647 72.079C56.203 71.3436 55.5288 70.578 54.9877 69.8166C54.7459 69.4764 54.5328 69.1458 54.3305 68.8198Z" fill="#FFBB00"/>
</svg>
