<svg width="15" height="15" viewBox="0 0 15 15" fill="none" xmlns="http://www.w3.org/2000/svg">
<path d="M7.40894 0.583313C3.54076 0.583313 0.401367 3.72271 0.401367 7.59089C0.401367 11.4591 3.54076 14.5985 7.40894 14.5985C11.2771 14.5985 14.4165 11.4591 14.4165 7.59089C14.4165 3.72271 11.2771 0.583313 7.40894 0.583313ZM7.40894 3.38634C8.76141 3.38634 9.8616 4.48653 9.8616 5.83899C9.8616 7.19146 8.76141 8.29165 7.40894 8.29165C6.05648 8.29165 4.95629 7.19146 4.95629 5.83899C4.95629 4.48653 6.05648 3.38634 7.40894 3.38634ZM7.40894 13.1969C5.98641 13.1969 4.30459 12.6223 3.10629 11.1788C4.33374 10.2157 5.84879 9.69232 7.40894 9.69232C8.9691 9.69232 10.4841 10.2157 11.7116 11.1788C10.5133 12.6223 8.83148 13.1969 7.40894 13.1969Z" fill="black"/>
</svg>
