<svg width="13" height="15" viewBox="0 0 13 15" fill="none" xmlns="http://www.w3.org/2000/svg">
<path d="M0.102051 3.47501C0.102051 3.13585 0.343812 2.86045 0.642335 2.86045H2.50985C2.88055 2.84924 3.20781 2.58085 3.33394 2.18422L3.35497 2.11414L3.43555 1.84014C3.48461 1.67196 3.52735 1.5248 3.58762 1.39376C3.82448 0.875902 4.26315 0.516414 4.7698 0.424614C4.89874 0.401489 5.03468 0.401489 5.19025 0.401489H7.62749C7.78376 0.401489 7.9197 0.401489 8.04794 0.424614C8.55459 0.516414 8.99396 0.875902 9.23012 1.39376C9.29038 1.5248 9.33313 1.67126 9.38288 1.84014L9.46277 2.11414L9.48379 2.18422C9.60993 2.58085 10.0024 2.84994 10.3738 2.86045H12.1747C12.4739 2.86045 12.7157 3.13585 12.7157 3.47501C12.7157 3.81418 12.4739 4.08958 12.1754 4.08958H0.641634C0.343812 4.08958 0.102051 3.81418 0.102051 3.47501Z" fill="black"/>
<path fill-rule="evenodd" clip-rule="evenodd" d="M6.12577 14.4166H6.69198C8.64219 14.4166 9.61695 14.4166 10.2518 13.7957C10.8853 13.1749 10.9498 12.1567 11.0794 10.1203L11.2665 7.1855C11.3366 6.08041 11.3716 5.52751 11.0542 5.17783C10.7361 4.82745 10.1993 4.82745 9.12502 4.82745H3.69274C2.61848 4.82745 2.081 4.82745 1.76356 5.17783C1.44541 5.52821 1.48045 6.08041 1.55123 7.1855L1.73833 10.1203C1.86797 12.1567 1.93244 13.1756 2.56662 13.7957C3.20081 14.4166 4.17556 14.4166 6.12577 14.4166ZM5.17975 7.54149C5.15172 7.23736 4.89384 7.01592 4.60513 7.04605C4.31572 7.07618 4.10549 7.34738 4.13422 7.65151L4.4846 11.3396C4.51263 11.6437 4.77051 11.8652 5.05922 11.835C5.34863 11.8049 5.55886 11.5337 5.53013 11.2296L5.17975 7.54149ZM8.21333 7.04605C8.50204 7.07618 8.71297 7.34738 8.68354 7.65151L8.33316 11.3396C8.30513 11.6437 8.04655 11.8652 7.75854 11.835C7.46912 11.8049 7.2589 11.5337 7.28763 11.2296L7.63801 7.54149C7.66604 7.23736 7.92532 7.01592 8.21333 7.04605Z" fill="black"/>
</svg>
