<svg width="16" height="16" viewBox="0 0 16 16" fill="none" xmlns="http://www.w3.org/2000/svg">
<path d="M8.58127 10.0504L5.375 10.625L5.90938 7.39034L12.0333 1.31474C12.1327 1.21501 12.2509 1.13585 12.3811 1.08183C12.5114 1.02781 12.6511 1 12.7922 1C12.9332 1 13.0729 1.02781 13.2032 1.08183C13.3334 1.13585 13.4516 1.21501 13.551 1.31474L14.6839 2.44261C14.784 2.54152 14.8635 2.65921 14.9178 2.78887C14.9721 2.91853 15 3.05761 15 3.19807C15 3.33853 14.9721 3.47761 14.9178 3.60727C14.8635 3.73693 14.784 3.85461 14.6839 3.95353L8.58127 10.0504Z" stroke="black" stroke-width="1.8" stroke-linecap="round" stroke-linejoin="round"/>
<path d="M13.25 10.7391V13.9348C13.25 14.2173 13.1378 14.4882 12.938 14.688C12.7382 14.8878 12.4673 15 12.1848 15H2.06522C1.7827 15 1.51176 14.8878 1.31199 14.688C1.11223 14.4882 1 14.2173 1 13.9348V3.81522C1 3.5327 1.11223 3.26176 1.31199 3.06199C1.51176 2.86223 1.7827 2.75 2.06522 2.75H5.26087" stroke="black" stroke-width="1.8" stroke-linecap="round" stroke-linejoin="round"/>
</svg>
